<?xml version="1.0" standalone="no"?>
<!DOCTYPE svg PUBLIC "-//W3C//DTD SVG 20010904//EN"
 "http://www.w3.org/TR/2001/REC-SVG-20010904/DTD/svg10.dtd">
<svg version="1.0" xmlns="http://www.w3.org/2000/svg"
 width="640.000000pt" height="640.000000pt" viewBox="0 0 640.000000 640.000000"
 preserveAspectRatio="xMidYMid meet">
<metadata>
Created by potrace 1.14, written by Peter Selinger 2001-2017
</metadata>
<g transform="translate(0.000000,640.000000) scale(0.100000,-0.100000)"
fill="#000000" stroke="none">
<path d="M2160 5355 c-11 -13 -11 -25 4 -71 14 -45 21 -54 40 -54 40 0 49 21
34 82 -11 46 -17 53 -39 56 -15 2 -31 -4 -39 -13z"/>
<path d="M2303 5259 c-40 -12 -60 -43 -42 -66 10 -11 24 -14 57 -9 63 9 84 22
80 54 -2 22 -8 27 -33 29 -16 1 -45 -3 -62 -8z"/>
<path d="M2106 5207 c-43 -13 -63 -36 -53 -61 10 -27 36 -30 93 -12 49 15 54
20 54 45 0 42 -24 49 -94 28z"/>
<path d="M2214 5155 c-9 -22 4 -99 20 -120 10 -13 20 -16 41 -11 27 7 27 9 22
56 -3 27 -11 59 -17 70 -13 24 -58 27 -66 5z"/>
<path d="M4462 4898 c-24 -24 -12 -49 38 -80 28 -17 50 -32 50 -34 0 -2 -22
-15 -50 -29 -52 -26 -65 -56 -38 -83 19 -19 31 -15 123 40 113 67 113 82 0
150 -84 50 -103 56 -123 36z"/>
<path d="M1756 4740 c-16 -5 -40 -19 -53 -32 -56 -52 -53 59 -53 -1728 0
-1635 0 -1651 20 -1690 35 -68 77 -82 234 -78 118 3 134 5 164 26 18 13 40 38
50 55 16 30 17 137 20 1652 2 1144 0 1635 -8 1671 -12 59 -57 109 -111 124
-41 12 -223 12 -263 0z m187 -87 c-29 -2 -77 -2 -105 0 -29 2 -6 3 52 3 58 0
81 -1 53 -3z m104 -65 c-3 -8 -6 -5 -6 6 -1 11 2 17 5 13 3 -3 4 -12 1 -19z
m-310 -2360 c-1 -436 -2 -80 -2 792 0 872 1 1228 2 793 2 -436 2 -1150 0
-1585z m310 -525 c-3 -10 -5 -2 -5 17 0 19 2 27 5 18 2 -10 2 -26 0 -35z m0
-55 c-3 -7 -5 -2 -5 12 0 14 2 19 5 13 2 -7 2 -19 0 -25z m-297 -308 c6 -11 8
-20 6 -20 -3 0 -10 9 -16 20 -6 11 -8 20 -6 20 3 0 10 -9 16 -20z m284 -14
c-3 -8 -13 -17 -22 -21 -13 -5 -13 -2 3 15 21 24 26 25 19 6z"/>
<path d="M2270 4455 c-15 -19 -14 -233 2 -252 8 -10 51 -13 174 -13 l164 0 0
-60 0 -60 -92 0 c-133 -1 -192 -31 -239 -122 -18 -35 -19 -63 -19 -446 l0
-408 28 -45 c36 -54 57 -74 105 -94 32 -13 183 -15 1272 -15 1196 0 1237 1
1273 19 48 25 87 66 106 113 14 32 16 98 16 438 0 374 -1 403 -19 438 -49 95
-100 122 -236 122 l-95 0 0 60 0 60 163 0 c113 0 167 4 175 12 17 17 17 239 0
256 -9 9 -331 12 -1389 12 -1203 0 -1378 -2 -1389 -15z m2710 -122 l0 -58
-159 3 c-200 4 -191 10 -191 -139 0 -61 5 -119 10 -130 10 -17 22 -19 128 -19
98 0 122 -3 149 -20 63 -38 63 -39 63 -467 0 -367 -1 -390 -20 -420 -41 -67
48 -63 -1295 -63 -1335 0 -1244 -4 -1299 60 l-26 32 0 389 c0 431 0 431 63
469 27 17 51 20 148 20 76 0 119 4 127 12 8 8 12 53 12 135 l0 123 -27 11
c-15 6 -90 9 -175 7 l-148 -3 0 58 0 57 1320 0 1320 0 0 -57z"/>
<path d="M2787 4269 c-15 -9 -17 -28 -17 -134 0 -113 2 -125 19 -135 30 -16
1733 -14 1749 2 8 8 12 53 12 135 0 119 -1 124 -22 133 -31 12 -1719 11 -1741
-1z m1683 -139 l0 -60 -810 0 -810 0 0 60 0 60 810 0 810 0 0 -60z"/>
<path d="M3225 3685 c-86 -33 -125 -98 -125 -209 0 -85 10 -119 48 -160 86
-92 254 -85 319 13 50 75 55 195 11 273 -44 78 -163 117 -253 83z m131 -80
c41 -17 64 -63 64 -130 0 -92 -42 -145 -115 -145 -75 0 -115 51 -115 147 0
116 69 169 166 128z"/>
<path d="M2682 3474 l3 -217 43 -1 42 -1 0 98 0 97 85 0 85 0 0 -97 0 -98 42
1 43 1 3 217 2 216 -45 0 -45 0 0 -85 0 -85 -85 0 -85 0 0 85 0 85 -45 0 -45
0 2 -216z"/>
<path d="M3542 3653 l3 -38 63 -3 62 -3 0 -174 0 -175 45 0 45 0 0 175 0 175
60 0 60 0 0 40 0 40 -171 0 -170 0 3 -37z"/>
<path d="M3940 3473 l0 -218 160 0 160 0 0 40 0 40 -117 0 -118 0 0 55 0 55
108 3 107 3 0 34 0 35 -110 0 -110 0 0 45 0 44 118 3 117 3 3 38 3 37 -160 0
-161 0 0 -217z"/>
<path d="M4330 3475 l0 -215 145 0 c80 0 148 0 152 0 3 0 6 16 6 36 l0 37
-106 -2 -107 -2 0 180 0 181 -45 0 -45 0 0 -215z"/>
<path d="M1228 3619 c-24 -9 -26 -13 -17 -35 15 -42 11 -51 -27 -58 -34 -7
-35 -9 -28 -39 9 -45 10 -45 49 -33 33 10 35 13 32 50 -2 36 1 40 28 47 33 10
40 5 49 -33 5 -24 2 -28 -30 -38 -33 -11 -36 -15 -30 -43 8 -40 10 -42 48 -30
27 8 32 14 30 34 -2 13 -5 30 -5 38 -1 9 12 19 33 25 19 5 36 10 38 11 1 1 -3
16 -9 33 -12 34 -23 38 -63 22 -23 -8 -26 -6 -36 25 -12 37 -19 39 -62 24z"/>
<path d="M4950 2825 c-49 -21 -82 -73 -82 -130 0 -158 218 -187 263 -35 33
109 -77 209 -181 165z m73 -76 c27 -14 37 -28 37 -51 0 -24 -35 -58 -59 -58
-49 0 -70 76 -29 104 27 19 24 19 51 5z"/>
<path d="M3752 1678 c-7 -7 -12 -19 -12 -28 0 -34 22 -40 147 -40 112 0 123 2
133 20 8 14 8 26 0 40 -10 18 -21 20 -133 20 -82 0 -127 -4 -135 -12z"/>
<path d="M3370 1565 c-10 -12 -10 -21 -2 -40 l12 -25 244 0 c235 0 246 1 256
20 8 14 8 26 0 40 -10 19 -21 20 -254 20 -206 0 -245 -2 -256 -15z"/>
<path d="M2350 1229 c-59 -24 -84 -82 -60 -140 17 -41 47 -59 98 -59 108 0
144 148 47 195 -38 17 -50 18 -85 4z m55 -100 c0 -28 -23 -32 -39 -6 -8 14 -8
20 4 27 22 14 35 6 35 -21z"/>
</g>
</svg>
