<svg width="13" height="13" fill="none" xmlns="http://www.w3.org/2000/svg"><path fill="#E5E5E5" d="M0 0h13v13H0z"/><path fill="#fff" d="M-761-53H679v3080H-761z"/><path fill="#fff" d="M-761-53H679V67H-761z"/><rect x="-311" y="-13" width="350" height="40" rx="6" fill="#F5FAFE"/><path d="M-26-13h59a6 6 0 0 1 6 6v28a6 6 0 0 1-6 6h-59v-40z" fill="#EC1F46"/><path fill-rule="evenodd" clip-rule="evenodd" d="M6.333 1.667a4.667 4.667 0 1 0 0 9.333 4.667 4.667 0 0 0 0-9.333zm-6 4.666a6 6 0 1 1 12 0 6 6 0 0 1-12 0z" fill="#fff"/><path fill-rule="evenodd" clip-rule="evenodd" d="M9.629 9.629c.26-.26.682-.26.942 0l2.9 2.9a.667.667 0 1 1-.942.942l-2.9-2.9a.667.667 0 0 1 0-.942z" fill="#fff"/></svg>